<svg width="32" height="32" xmlns="http://www.w3.org/2000/svg">

 <g>
  <title>background</title>
  <rect fill="none" id="canvas_background" height="402" width="582" y="-1" x="-1"/>
 </g>
 <g>
  <title>Layer 1</title>
  <path id="diamond" fill="#ffffff" d="m31.414,9.677l-5.08,-5.081c-0.375,-0.375 -0.885,-0.586 -1.414,-0.586l-17.839,0c-0.53,0 -1.039,0.211 -1.414,0.586l-5.08,5.081c-0.393,0.392 -0.589,0.909 -0.587,1.427c0.003,0.47 0.171,0.939 0.506,1.316l13.999,14.907999c0.38,0.428001 0.924,0.672001 1.495,0.672001c0.570999,0 1.115,-0.243999 1.493999,-0.672001l14,-14.907999c0.342001,-0.385 0.510002,-0.867 0.506001,-1.348001c-0.004,-0.506 -0.201,-1.009999 -0.586,-1.395zm-13.195,1.333l-4.439,0l2.22,-1.849l2.219,1.849zm-1.437,-2.5l2.732,-2.278l2.018,2.018l-2.532,2.109l-2.218,-1.849zm-3.782,1.849l-2.532,-2.109l2.018,-2.018l2.733,2.278l-2.219,1.849zm5.49,1.651l-2.49,12.452999l-2.49,-12.452999l4.98,0zm1.02,0l4.906,0l-7.359001,12.268999l2.453001,-12.268999zm0.268999,-1l2.463001,-2.051001l2.050999,2.051001l-4.514,0zm0.928001,-5l3.511999,0l-1.916,1.597l-1.595999,-1.597zm-4.707001,1.85l-2.22,-1.85l4.438001,0l-2.218,1.85zm-6.304,-0.253l-1.916,-1.597l3.513,0l-1.597,1.597zm0.062,1.352l2.462,2.051001l-4.513,0l2.051001,-2.051001zm2.731999,3.051001l2.453,12.268999l-7.36,-12.268999l4.907,0zm0.214001,10.478001l-9.84,-10.478001l3.554,0l6.286,10.478001zm12.878,-10.478001l3.554998,0l-9.841999,10.48l6.287001,-10.48zm0.125,-1l-2.693001,-2.693l2.297001,-1.915l4.606998,4.608l-4.210999,0zm-19.021001,-4.61l2.301001,1.917l-2.694,2.693l-4.287,0l4.68,-4.61z"/>
 </g>
</svg>